<?xml version="1.0" encoding="UTF-8"?>
<svg xmlns="http://www.w3.org/2000/svg" xmlns:xlink="http://www.w3.org/1999/xlink" width="283.47pt" height="283.47pt" viewBox="0 0 283.47 283.47" version="1.1">
<defs>
<clipPath id="clip1">
  <path d="M 0 0 L 283.46875 0 L 283.46875 283.46875 L 0 283.46875 Z M 0 0 "/>
</clipPath>
</defs>
<g id="surface1">
<g clip-path="url(#clip1)" clip-rule="nonzero">
<path style=" stroke:none;fill-rule:nonzero;fill:rgb(13.699341%,12.199402%,12.5%);fill-opacity:1;" d="M 283.464844 283.46875 L 0 283.46875 L 0 0.00390625 L 283.464844 0.00390625 L 283.464844 283.46875 "/>
</g>
<path style=" stroke:none;fill-rule:nonzero;fill:rgb(100%,100%,100%);fill-opacity:1;" d="M 182.683594 147.035156 C 182.125 140.027344 178.402344 127.652344 159.058594 127.652344 L 159.058594 142.78125 C 159.058594 142.78125 168.386719 138.875 168.386719 148.457031 C 168.386719 148.457031 168.640625 154.003906 162.460938 154.003906 C 156.285156 154.003906 156.285156 146.4375 156.285156 146.4375 L 156.269531 113.964844 L 142.164063 114.035156 L 142.164063 151.355469 C 142.164063 151.355469 142.414063 168.125 162.460938 168.125 C 170.910156 168.125 175.8125 165.214844 178.664063 161.84375 C 173.863281 172.054688 163.578125 182.800781 141.53125 182.800781 C 120.214844 182.800781 109.632813 172.839844 104.378906 163.03125 C 107.34375 165.867188 112.035156 168.125 119.472656 168.125 C 139.515625 168.125 139.769531 151.355469 139.769531 151.355469 L 139.769531 114.035156 L 125.664063 113.964844 L 125.648438 146.4375 C 125.648438 146.4375 125.648438 154.003906 119.472656 154.003906 C 113.292969 154.003906 113.546875 148.457031 113.546875 148.457031 C 113.546875 138.875 122.875 142.78125 122.875 142.78125 L 122.875 127.652344 C 104.292969 127.652344 100.125 139.074219 99.328125 146.183594 C 99.203125 144.886719 99.195313 144.132813 99.195313 144.132813 C 99.195313 144.132813 98.863281 99.132813 141.195313 99.132813 C 183.53125 99.132813 182.863281 143.800781 182.863281 143.800781 C 182.863281 143.800781 182.882813 145.027344 182.683594 147.035156 Z M 224.425781 131.164063 C 224.425781 87.925781 184.972656 59.203125 142.363281 59.203125 C 99.757813 59.203125 58.722656 82.875 58.722656 143.789063 C 58.722656 204.703125 109.539063 223.640625 141.730469 223.640625 C 173.925781 223.640625 184.972656 213.59375 184.972656 213.59375 C 184.972656 213.59375 186.234375 224.269531 205.488281 224.269531 C 224.738281 224.269531 224.742188 206.28125 224.742188 206.28125 C 224.742188 206.28125 224.425781 174.402344 224.425781 131.164063 "/>
</g>
</svg>
