<?xml version="1.0" standalone="no"?>
<!DOCTYPE svg PUBLIC "-//W3C//DTD SVG 20010904//EN"
 "http://www.w3.org/TR/2001/REC-SVG-20010904/DTD/svg10.dtd">
<svg version="1.0" xmlns="http://www.w3.org/2000/svg"
 width="1024.000000pt" height="1024.000000pt" viewBox="0 0 1024.000000 1024.000000"
 preserveAspectRatio="xMidYMid meet">

<g transform="translate(0.000000,1024.000000) scale(0.100000,-0.100000)"
fill="#000000" stroke="none">
<path d="M7615 9448 c-34 -18 -54 -50 -81 -130 -29 -87 -18 -81 -117 -56 -153
38 -583 60 -767 39 -315 -36 -501 -82 -783 -193 -152 -59 -290 -129 -451 -226
l-117 -72 -1492 -2 -1492 -3 -92 -27 c-246 -73 -417 -181 -570 -363 -101 -120
-198 -306 -235 -450 l-23 -90 0 -2825 0 -2825 27 -98 c28 -100 93 -242 149
-323 47 -68 146 -171 219 -226 89 -68 264 -152 385 -185 l100 -28 2945 -3
c2185 -2 2964 0 3020 8 337 52 621 251 783 550 41 75 67 142 99 255 l23 80 3
1980 2 1981 53 2 c68 3 134 37 169 88 45 65 59 138 65 359 5 185 3 229 -23
415 -67 479 -275 979 -551 1320 -74 92 -230 244 -338 330 -194 155 -487 326
-689 405 -53 20 -96 42 -96 48 0 6 12 45 26 87 26 72 26 77 11 112 -27 63
-108 96 -162 66z m-413 -394 c80 -9 216 -40 198 -46 -8 -3 -55 -18 -105 -33
-313 -96 -588 -303 -833 -625 -23 -30 -46 -60 -51 -66 -4 -5 -14 -21 -21 -34
-16 -30 -40 -55 -40 -42 0 28 77 228 118 305 98 188 224 313 437 436 92 53 73
53 -24 -1 -88 -48 -102 -57 -236 -160 -316 -242 -593 -599 -883 -1138 -13 -25
-26 -47 -27 -49 -2 -2 -44 30 -92 70 -107 90 -223 159 -349 209 -52 20 -97 40
-100 43 -10 10 96 157 180 251 280 312 534 521 862 709 82 46 238 125 252 126
4 1 27 7 52 15 25 8 86 20 135 26 50 7 97 13 105 15 20 5 351 -4 422 -11z
m398 -94 c147 -52 230 -89 340 -150 274 -152 550 -374 626 -503 66 -113 152
-362 179 -521 7 -40 -10 -100 -26 -90 -5 3 -9 -5 -9 -18 0 -18 -2 -20 -9 -9
-8 12 -11 9 -17 -12 -3 -16 -8 -26 -10 -24 -2 2 -15 49 -29 104 -64 258 -190
524 -352 740 -51 68 -169 190 -243 250 l-34 28 34 -48 c149 -204 238 -445 287
-772 28 -185 25 -723 -5 -930 -12 -82 -24 -171 -28 -197 -4 -27 -8 -48 -10
-48 -1 0 -29 28 -61 61 -109 115 -226 175 -362 186 -36 3 -86 0 -110 -5 l-44
-11 -71 66 c-197 181 -455 255 -721 208 -43 -8 -81 -12 -83 -10 -6 6 23 109
127 440 173 557 344 1046 437 1252 33 73 26 72 194 13z m-2741 -507 c-122
-125 -193 -208 -257 -304 -68 -100 -84 -142 -85 -216 -1 -52 4 -69 29 -110 18
-28 48 -59 77 -77 45 -28 54 -29 210 -36 229 -11 343 -43 503 -141 68 -41 204
-149 204 -161 0 -4 21 -23 46 -43 55 -41 91 -44 212 -18 51 11 117 16 194 15
257 -2 447 -85 634 -277 105 -108 130 -118 227 -93 31 8 57 11 57 6 0 -10
-118 -374 -222 -686 -49 -145 -74 -209 -81 -200 -6 9 -7 7 -3 -6 4 -11 -3 -49
-15 -85 -19 -58 -33 -76 -118 -161 -148 -148 -252 -209 -358 -210 l-33 0 0
-68 c0 -126 -33 -337 -72 -462 -88 -283 -228 -511 -447 -731 -133 -132 -287
-240 -460 -321 -112 -53 -329 -126 -396 -133 -22 -3 -57 -7 -77 -9 l-38 -4 6
82 c5 67 2 91 -15 140 -113 319 -546 390 -792 129 -61 -65 -67 -69 -133 -82
-65 -13 -69 -13 -97 8 -17 12 -38 21 -47 18 -12 -2 -6 -10 23 -27 l39 -24 -69
-23 c-39 -12 -83 -22 -99 -22 -16 -1 -45 -5 -65 -10 -20 -5 -72 -17 -116 -27
-352 -74 -570 -138 -617 -180 -9 -9 -22 -13 -29 -8 -7 4 -10 3 -5 -4 3 -6 -2
-17 -12 -24 -10 -7 -27 -25 -36 -40 -10 -15 -21 -26 -25 -24 -4 3 -7 -3 -8
-12 -1 -9 -11 -44 -23 -77 -18 -48 -21 -72 -15 -118 l6 -58 -50 -55 c-28 -30
-67 -89 -86 -130 -27 -56 -40 -74 -55 -74 -17 0 -19 5 -14 28 11 52 27 97 46
136 19 37 19 38 1 31 -10 -4 -45 -15 -78 -23 -33 -7 -66 -16 -73 -18 -10 -3
-12 -16 -8 -47 21 -139 22 -127 -10 -129 -16 0 -35 -1 -41 -1 -7 1 -11 -3 -8
-7 8 -13 -67 -30 -82 -18 -10 8 -12 7 -8 -5 4 -9 0 -17 -12 -21 -10 -3 -42
-22 -72 -41 -29 -19 -57 -32 -62 -29 -5 3 -8 0 -7 -8 2 -7 -3 -12 -9 -11 -7 2
-13 -2 -13 -8 0 -5 -5 -7 -12 -3 -6 4 -8 3 -5 -3 8 -13 -60 -76 -73 -68 -5 3
-11 1 -15 -5 -4 -6 -11 -7 -17 -4 -7 4 -8 2 -4 -5 6 -9 12 -9 24 1 9 7 1 -6
-18 -29 -19 -23 -36 -40 -38 -38 -2 1 -6 1046 -8 2321 -4 1594 -2 2366 5 2470
12 169 35 254 103 374 123 219 370 389 613 423 17 2 604 5 1305 6 l1275 1 -96
-97z m2369 -1409 c24 -5 29 -10 25 -28 -11 -47 -267 -844 -498 -1546 -68 -206
-144 -441 -169 -521 l-47 -147 -47 18 c-39 15 -47 22 -44 42 1 13 103 329 227
703 123 374 258 786 300 915 106 327 175 531 186 552 10 19 20 21 67 12z m176
-125 c26 -17 76 -64 113 -105 88 -98 130 -111 256 -78 130 33 194 1 327 -166
84 -106 121 -116 255 -70 169 59 345 39 483 -52 l42 -29 0 -774 0 -775 -1099
0 c-605 0 -1102 -3 -1104 -7 -3 -5 369 -8 826 -8 770 0 1330 -7 1247 -15 -23
-2 -12 -5 35 -9 54 -5 73 -3 83 8 10 12 12 -79 12 -457 0 -465 0 -473 -19
-462 -30 15 -152 39 -169 32 -10 -3 -13 -1 -8 6 5 8 -3 10 -26 6 -25 -4 -29
-3 -18 5 12 9 8 11 -20 10 -19 0 -51 1 -70 4 -122 15 -391 47 -425 49 l-40 3
-10 65 c-26 158 -162 335 -309 404 -116 55 -121 53 -55 -15 52 -54 77 -91 49
-74 -5 3 -10 -1 -10 -10 0 -26 28 -73 47 -78 14 -4 13 -5 -4 -6 -12 0 -27 7
-32 17 -6 9 -11 12 -11 5 0 -6 -3 -20 -6 -30 -5 -15 -4 -16 6 -3 9 12 10 5 5
-30 -3 -25 -11 -58 -17 -74 -10 -25 -13 -27 -18 -10 -6 17 -8 16 -20 -6 -7
-14 -22 -31 -33 -39 -13 -9 -15 -16 -8 -21 8 -4 5 -12 -9 -25 -11 -10 -20 -13
-20 -8 0 6 -29 -4 -65 -22 -55 -28 -79 -33 -167 -39 -208 -13 -453 -39 -537
-55 -29 -6 -57 -9 -61 -6 -5 3 -11 1 -15 -5 -3 -5 -21 -10 -40 -10 l-34 0 15
35 c7 19 14 61 14 93 0 52 3 61 31 88 74 70 103 213 64 323 -8 24 -12 48 -8
54 3 6 1 7 -5 3 -6 -4 -18 6 -26 23 -21 41 -109 129 -140 141 -14 5 -26 16
-26 24 0 7 26 94 58 192 32 99 78 240 101 314 51 161 124 385 304 940 75 228
156 480 182 560 54 171 65 200 74 200 4 0 29 -14 55 -31z m-908 -1179 c-7 -47
-53 -185 -91 -280 -30 -73 -40 -89 -29 -46 5 22 4 27 -5 21 -8 -4 -7 4 3 23
20 38 20 42 0 42 -8 0 -23 8 -32 17 -16 16 -16 16 5 11 20 -5 21 -4 10 21 -6
14 -19 38 -29 53 -27 39 -22 50 33 83 28 17 69 45 92 62 23 18 44 33 46 33 2
0 1 -18 -3 -40z m-161 -486 c-11 -28 -13 -31 -9 -9 4 17 7 38 8 47 0 10 4 14
8 10 5 -5 1 -26 -7 -48z m-22 -74 c-3 -12 -8 -19 -11 -16 -5 6 5 36 12 36 2 0
2 -9 -1 -20z m-33 -101 c0 -6 -4 -7 -10 -4 -5 3 -10 11 -10 16 0 6 5 7 10 4 6
-3 10 -11 10 -16z m-22 -60 c-6 -16 -12 -28 -14 -26 -5 5 13 57 20 57 3 0 0
-14 -6 -31z m-30 -94 c-6 -19 -15 -32 -19 -29 -5 3 -6 -8 -4 -23 6 -32 -10
-65 -22 -47 -5 6 -25 14 -46 18 -21 4 -35 11 -31 17 3 6 19 7 34 4 26 -6 28
-4 24 17 -2 13 -1 17 2 10 8 -16 34 3 34 25 0 8 4 12 9 9 5 -3 11 3 14 14 3
11 7 20 10 20 3 0 0 -16 -5 -35z m-188 -169 c0 -2 -7 -7 -16 -10 -8 -3 -12 -2
-9 4 6 10 25 14 25 6z m-78 -91 c-8 -16 -9 -16 -15 -1 -4 10 -3 15 3 11 6 -3
10 -1 10 6 0 7 3 10 6 6 3 -3 2 -13 -4 -22z m465 -95 c135 -35 168 -51 193
-93 29 -47 26 -96 -10 -145 -34 -48 -57 -62 -98 -62 -44 0 -186 30 -197 42 -7
8 -6 8 4 3 9 -5 12 -4 7 3 -4 6 -13 9 -21 5 -9 -3 -32 7 -52 23 -20 15 -33 22
-28 14 5 -7 -3 -5 -18 6 -14 10 -37 40 -52 65 -23 43 -24 50 -13 85 17 52 66
84 127 84 25 0 96 -13 158 -30z m-497 -114 c0 -8 -4 -17 -8 -20 -4 -2 -8 4 -8
15 0 10 4 19 8 19 4 0 8 -6 8 -14z m1864 -71 c3 -8 1 -15 -3 -15 -5 0 -11 7
-15 15 -3 8 -1 15 3 15 5 0 11 -7 15 -15z m81 -108 c28 -48 35 -86 8 -47 -9
14 -18 27 -20 30 -2 2 -8 -2 -13 -10 -6 -10 -9 -1 -7 28 0 23 2 42 4 42 1 0
14 -20 28 -43z m-1527 -7 c73 -22 141 -44 152 -50 48 -26 63 -86 32 -130 -20
-29 -32 -32 -132 -32 -81 1 -120 9 -120 24 0 6 -8 7 -17 3 -10 -4 -25 -7 -33
-8 -8 0 -20 -4 -26 -9 -6 -4 -20 -5 -29 -1 -13 4 -16 3 -11 -5 5 -8 2 -10 -8
-6 -21 8 -10 24 17 24 46 0 65 5 60 13 -3 5 -16 6 -30 2 -16 -4 -22 -2 -18 5
3 5 3 10 -2 11 -29 3 -50 7 -67 14 -13 6 -17 5 -13 -2 4 -6 0 -13 -8 -16 -9
-4 -12 -1 -9 7 3 8 0 17 -7 22 -8 4 -10 3 -5 -4 4 -7 4 -12 1 -12 -3 0 -13 16
-21 37 -22 50 -11 96 29 127 47 37 106 34 265 -14z m-787 -79 c55 -49 113 -82
179 -100 19 -5 27 -10 18 -10 -24 -1 -46 -37 -54 -87 -7 -48 22 -123 58 -148
12 -9 20 -16 16 -16 -3 0 7 -14 23 -31 16 -17 29 -37 29 -43 0 -28 -42 -133
-53 -133 -7 0 -57 -12 -112 -27 -117 -32 -144 -36 -151 -25 -3 5 -1 9 4 9 5 0
13 41 16 90 4 51 12 90 18 90 7 0 8 41 4 123 -4 67 -8 141 -9 165 -1 23 -5 42
-8 42 -4 0 -9 21 -13 48 -4 26 -13 56 -21 66 -17 22 -19 36 -7 36 4 0 33 -22
63 -49z m-1298 8 c48 -13 103 -68 118 -118 10 -35 9 -44 -12 -82 -24 -43 -96
-100 -83 -65 6 16 -14 22 -61 17 -31 -3 -122 -48 -148 -73 -31 -31 -54 -107
-35 -119 10 -7 10 -9 1 -9 -7 0 -13 -7 -13 -15 0 -18 -7 -19 125 5 176 33 236
35 288 12 43 -19 76 -59 91 -109 8 -26 -11 -106 -24 -98 -5 3 -11 -4 -15 -15
-10 -32 -54 -60 -94 -59 l-36 1 33 8 c18 4 36 11 40 15 4 5 -1 5 -10 2 -10 -4
-18 -2 -18 3 0 6 5 10 12 10 6 0 9 2 7 5 -3 2 -22 0 -44 -6 -21 -6 -56 -12
-79 -14 -58 -4 -58 -4 -51 -15 3 -5 1 -10 -5 -10 -6 0 -4 -8 6 -17 14 -14 35
-18 103 -18 74 0 91 -3 119 -23 58 -42 75 -99 46 -157 -8 -16 -12 -22 -9 -12
5 19 -11 24 -17 5 -3 -7 -19 -14 -36 -14 -83 -4 -87 -4 -73 -13 14 -9 -30 -21
-79 -22 -23 0 -23 -1 -5 -8 11 -5 36 -6 55 -4 25 3 31 2 21 -5 -11 -8 -9 -11
10 -15 14 -2 5 -5 -22 -6 -25 0 -50 4 -56 10 -6 6 -27 12 -47 14 -32 3 -35 2
-26 -15 5 -10 15 -21 22 -24 7 -4 2 -4 -11 -2 -17 4 -21 2 -13 -6 6 -6 42 -10
85 -9 67 2 77 -1 105 -24 37 -31 55 -82 47 -127 -11 -58 -22 -64 -140 -82
-158 -24 -218 -37 -234 -52 -22 -20 31 -47 100 -52 46 -3 59 -8 59 -21 0 -14
-2 -14 -10 -1 -5 8 -10 10 -10 5 0 -16 -49 -20 -215 -19 -132 1 -161 4 -240
28 -49 15 -111 37 -137 50 -28 13 -48 18 -48 12 -1 -30 -21 30 -40 120 -40
190 -111 577 -106 581 3 3 40 13 83 22 l78 17 7 44 c34 196 179 424 329 515
94 58 221 80 312 54z m3687 -131 c0 -15 -18 -17 -197 -17 -179 0 -194 1 -169
14 31 17 49 20 26 5 -9 -6 45 -8 150 -7 149 2 165 4 166 20 1 12 1 13 -3 2 -3
-9 -16 -15 -34 -15 -27 0 -29 2 -15 15 13 14 13 68 0 84 -2 2 6 9 19 16 21 10
23 8 39 -44 10 -31 18 -64 18 -73z m-1805 24 c-3 -3 -11 0 -18 7 -9 10 -8 11
6 5 10 -3 15 -9 12 -12z m1530 -1 c-3 -6 -11 -11 -16 -11 -5 0 -4 6 3 14 14
16 24 13 13 -3z m-1450 -106 c44 -12 101 -28 127 -35 80 -21 119 -78 85 -124
-17 -23 -121 -47 -172 -40 -40 6 -123 28 -160 44 -34 14 -78 7 -81 -13 -1 -10
2 -14 8 -11 7 4 8 2 4 -4 -4 -7 -1 -12 9 -12 10 0 13 -5 9 -12 -5 -8 -1 -9 12
-4 15 6 16 4 7 -5 -9 -9 -19 -6 -45 16 -47 39 -57 57 -64 109 -8 55 11 90 59
112 39 17 91 12 202 -21z m-2679 -16 c-14 -11 -24 -25 -20 -30 3 -5 0 -8 -6
-7 -7 2 -12 -15 -14 -44 -1 -26 2 -44 6 -42 4 3 8 1 8 -4 0 -14 -57 -35 -75
-28 -9 3 -13 2 -10 -4 3 -6 0 -10 -7 -10 -9 0 -9 -3 2 -10 12 -8 10 -10 -8
-10 -13 0 -20 4 -17 10 6 10 -39 5 -89 -11 -15 -5 -32 -6 -36 -4 -5 3 -11 1
-15 -5 -3 -5 -20 -10 -36 -10 -17 0 -28 -3 -26 -7 3 -5 -16 -8 -41 -8 -26 0
-53 -6 -61 -13 -7 -7 -19 -11 -26 -8 -7 2 -35 -1 -62 -8 -39 -11 -51 -11 -60
0 -10 10 -10 14 0 18 7 3 -1 3 -18 -1 -16 -3 -34 -9 -38 -13 -5 -4 3 -5 17 -3
14 3 26 1 26 -4 0 -5 -16 -9 -35 -10 -22 -1 -33 3 -28 10 3 6 1 7 -6 3 -6 -4
-9 -11 -6 -16 3 -5 -9 -19 -26 -32 -17 -13 -39 -39 -50 -58 -10 -19 -18 -29
-19 -22 0 18 29 63 59 90 19 17 21 21 6 14 -56 -28 -88 -100 -76 -169 12 -60
11 -59 24 -55 18 5 191 39 322 62 66 12 131 24 145 26 22 5 21 1 -17 -34 l-41
-38 29 -145 c16 -79 39 -193 50 -254 12 -60 37 -182 55 -270 18 -88 30 -163
26 -166 -4 -4 -81 -22 -172 -40 -220 -45 -366 -48 -451 -8 -107 50 -216 169
-256 281 -13 37 -21 47 -34 43 -21 -7 -33 -10 -126 -30 -72 -16 -199 -63 -240
-91 -27 -17 -30 -44 -5 -44 14 0 15 -2 2 -10 -20 -13 -33 -13 -25 0 3 6 1 10
-5 10 -6 0 -8 5 -5 10 3 6 2 10 -4 10 -5 0 -13 -9 -16 -20 -4 -11 -11 -17 -17
-14 -7 5 -9 1 -5 -9 4 -12 2 -14 -11 -10 -15 6 -15 5 -3 -10 14 -18 12 -24
-33 -72 -39 -42 -78 -112 -97 -177 -30 -99 -24 -241 13 -320 31 -67 103 -147
163 -183 131 -76 293 -60 405 41 95 85 93 202 -3 233 -42 14 -80 3 -143 -41
-63 -45 -75 -49 -117 -37 -49 13 -86 46 -108 93 -23 50 -23 77 -4 142 27 92
124 175 222 189 37 6 39 4 83 -55 97 -133 219 -218 363 -255 l87 -22 -112 -76
c-62 -41 -153 -105 -201 -141 -48 -36 -92 -66 -96 -66 -4 0 -20 -11 -35 -25
-15 -14 -31 -25 -37 -25 -5 0 -9 -4 -9 -8 0 -22 -211 -142 -250 -142 -10 0
-25 -6 -32 -14 -20 -19 -42 -7 -128 66 -88 75 -117 111 -169 210 -69 131 -86
196 -86 338 0 106 4 136 24 194 66 191 217 361 396 445 65 31 160 60 266 81
l56 11 7 67 c4 36 15 85 25 108 25 56 85 121 127 136 38 14 38 13 23 91 -29
159 57 296 219 347 66 21 690 137 746 139 l29 1 -27 -21z m700 -44 c-3 -10 1
-15 12 -16 13 0 11 -3 -5 -9 -14 -6 -32 -6 -45 1 -21 9 -21 9 5 4 32 -6 34 16
2 27 -16 5 -15 6 9 7 21 1 27 -3 22 -14z m357 -30 c4 3 5 2 2 -2 -3 -4 7 -20
22 -37 26 -28 25 -28 -14 4 -23 19 -42 42 -42 50 0 12 2 12 13 -2 7 -10 16
-16 19 -13z m-1004 -45 c0 -10 -3 -8 -9 5 -12 27 -12 43 0 25 5 -8 9 -22 9
-30z m601 30 c-8 -5 -19 -10 -25 -10 -5 0 -3 5 5 10 8 5 20 10 25 10 6 0 3 -5
-5 -10z m586 -47 c23 -45 72 -95 128 -130 23 -15 43 -29 46 -33 5 -7 137 -70
146 -70 8 0 99 -44 104 -50 3 -4 12 -9 20 -13 8 -4 22 -11 30 -16 8 -5 24 -12
35 -16 19 -6 19 -7 2 -16 -9 -6 -75 -30 -145 -54 -101 -35 -248 -92 -389 -152
-9 -3 -13 4 -13 22 0 14 -5 47 -11 72 -10 37 -9 47 2 55 11 8 10 9 -3 4 -26
-8 -29 5 -12 52 8 26 14 83 15 145 0 56 2 116 3 132 2 17 4 47 5 68 0 20 5 37
9 37 5 0 17 -17 28 -37z m1284 -17 c-4 -4 -16 -4 -26 2 -16 9 -14 10 8 9 15
-1 23 -6 18 -11z m2145 -21 c175 -17 404 -53 560 -88 l100 -22 3 -680 c3 -731
0 -777 -50 -879 -18 -37 -23 -42 -49 -38 -63 9 -489 -62 -613 -103 -22 -7 -84
-25 -136 -40 -52 -14 -111 -32 -130 -40 -19 -7 -69 -26 -110 -41 -41 -14 -104
-40 -140 -56 -36 -17 -99 -45 -140 -63 -121 -53 -231 -111 -223 -118 12 -12
-4890 -8 -4907 4 -12 9 -10 10 8 6 23 -5 46 10 114 76 62 60 173 155 258 221
104 80 420 292 464 311 83 35 116 44 181 50 112 11 286 43 304 57 32 24 41 43
41 86 l0 44 33 -7 c17 -3 51 -11 74 -17 62 -16 314 -5 383 17 149 47 259 130
349 263 59 88 82 143 89 219 l7 66 145 59 c224 91 874 308 886 295 2 -2 -11
-41 -28 -88 -17 -46 -40 -109 -51 -139 -29 -80 -27 -157 6 -213 46 -79 133
-137 204 -137 54 0 129 33 170 76 39 41 47 60 138 336 l96 293 57 2 c112 3
238 76 287 167 11 20 23 36 27 36 4 0 85 13 180 29 95 16 196 32 223 35 43 4
296 28 435 40 98 9 604 -4 755 -19z m-4720 5 c-3 -5 -14 -10 -23 -10 -15 0
-15 2 -2 10 20 13 33 13 25 0z m2619 -49 c4 -5 -3 -7 -14 -4 -23 6 -26 13 -6
13 8 0 17 -4 20 -9z m286 4 c0 -2 -13 -11 -29 -19 -26 -14 -30 -14 -35 0 -3 8
-2 12 4 9 5 -3 18 -1 27 4 19 11 33 14 33 6z m-290 -166 l48 -21 -13 -46 c-16
-56 -175 -544 -181 -554 -8 -14 -94 46 -94 66 0 18 182 576 188 576 2 0 25 -9
52 -21z m-620 -39 c-8 -5 -19 -10 -25 -10 -5 0 -3 5 5 10 8 5 20 10 25 10 6 0
3 -5 -5 -10z m-1040 -370 c-8 -5 -19 -10 -25 -10 -5 0 -3 5 5 10 8 5 20 10 25
10 6 0 3 -5 -5 -10z m-180 -4 c0 -3 -4 -8 -10 -11 -5 -3 -10 -1 -10 4 0 6 5
11 10 11 6 0 10 -2 10 -4z m40 -16 c0 -5 -8 -10 -17 -10 -15 0 -16 2 -3 10 19
12 20 12 20 0z m-1867 -292 c3 -8 -5 -14 -20 -14 -22 -2 -23 -1 -6 12 22 17
20 16 26 2z m-128 -46 c-3 -3 -11 0 -18 7 -9 10 -8 11 6 5 10 -3 15 -9 12 -12z
m-215 -36 c0 -11 -19 -15 -25 -6 -3 5 1 10 9 10 9 0 16 -2 16 -4z m6696 -718
c5 -7 3 -8 -6 -3 -10 6 -12 4 -6 -11 5 -14 4 -16 -5 -7 -6 6 -8 16 -5 22 9 14
13 14 22 -1z m-86 -128 c0 -5 -5 -10 -11 -10 -5 0 -7 5 -4 10 3 6 8 10 11 10
2 0 4 -4 4 -10z m-16 -31 c-2 -5 -12 -5 -22 -2 -15 6 -15 5 -3 -10 18 -23 8
-22 -12 1 -16 17 -15 18 13 18 16 0 27 -3 24 -7z m-39 -28 c3 -5 2 -12 -3 -15
-5 -3 -9 1 -9 9 0 17 3 19 12 6z m-75 -56 c-7 -8 -8 -15 -2 -15 5 0 15 7 22
15 7 8 17 15 23 15 11 0 -95 -85 -128 -102 -11 -6 -5 3 14 20 18 18 38 32 44
32 6 0 7 3 4 7 -4 3 0 15 10 25 19 22 31 24 13 3z m-116 -94 c3 -5 0 -11 -8
-14 -8 -3 -17 1 -20 9 -6 15 19 20 28 5z m-34 -25 c0 -2 -7 -7 -16 -10 -8 -3
-12 -2 -9 4 6 10 25 14 25 6z m-422 -83 c-76 -2 -200 -2 -275 0 -76 1 -14 3
137 3 151 0 213 -2 138 -3z"/>
<path d="M6146 6753 c-6 -20 -82 -160 -115 -213 -12 -19 -24 -43 -27 -52 -5
-16 -20 -18 -103 -18 -181 -1 -486 -19 -645 -40 -209 -27 -423 -83 -659 -171
-220 -83 -239 -85 -417 -51 -339 67 -580 66 -1020 -2 -77 -12 -159 -28 -185
-36 -16 -6 -83 -21 -147 -35 -153 -33 -217 -54 -229 -77 -12 -23 26 -251 49
-290 9 -16 43 -42 79 -60 72 -38 76 -45 123 -213 27 -94 76 -207 142 -331 28
-52 112 -137 171 -172 30 -18 88 -45 129 -60 68 -24 85 -26 266 -27 l192 -2
32 -47 c46 -70 147 -166 219 -209 136 -80 329 -123 517 -114 230 10 436 100
584 253 62 65 102 131 139 231 17 45 36 80 41 77 14 -9 226 24 303 47 210 62
313 136 384 276 46 91 61 193 61 407 l0 199 51 54 52 55 -9 126 c-4 70 -8 144
-7 164 1 21 -3 35 -8 32 -5 -3 -9 0 -9 5 0 6 7 11 15 11 8 0 15 6 15 13 0 6 7
21 16 32 12 16 17 17 23 6 6 -9 11 -4 19 18 7 19 7 33 1 36 -9 6 -13 -8 -9
-35 1 -10 -2 -12 -8 -5 -12 12 -4 65 10 65 5 0 6 9 3 20 -4 14 -2 20 7 18 24
-5 1 84 -27 105 -6 4 -4 11 5 17 13 8 13 10 -1 10 -9 0 -19 -8 -23 -17z m33
-77 c0 -21 0 -21 -9 0 -5 12 -13 25 -19 29 -6 3 -8 11 -5 17 10 15 34 -20 33
-46z m-1056 -498 c-12 -13 -26 -43 -33 -66 -10 -38 -9 -49 9 -85 l21 -42 -73
-75 c-78 -80 -130 -140 -220 -257 l-55 -73 -18 48 c-9 26 -25 67 -36 91 l-18
45 33 50 c47 69 182 221 247 276 101 85 192 141 143 88z m183 -12 c52 -52 47
-130 -11 -166 -72 -44 -158 -13 -175 64 -17 77 30 136 108 136 37 0 50 -6 78
-34z m-1716 -91 c0 -2 -14 -12 -31 -20 -38 -20 -109 -93 -109 -112 0 -8 -31
-47 -68 -87 -104 -108 -254 -288 -315 -377 -30 -44 -58 -76 -61 -70 -8 12 -62
240 -71 300 -9 54 1 62 62 49 40 -9 46 -8 60 12 35 50 138 159 201 212 87 75
143 97 250 97 45 1 82 -1 82 -4z m-327 -15 c-4 -4 -63 -24 -131 -44 -126 -37
-211 -75 -271 -120 -19 -14 -41 -26 -49 -26 -21 0 -72 56 -72 79 0 31 37 49
158 76 134 31 387 54 365 35z m398 -46 c61 -31 74 -127 25 -173 -76 -72 -196
-20 -196 86 0 86 87 131 171 87z m1689 -46 c26 -28 25 -40 -5 -68 -21 -20 -29
-22 -49 -12 -39 17 -44 51 -12 79 33 28 40 29 66 1z m-875 -68 c27 -10 60 -70
67 -120 2 -14 7 -30 11 -37 4 -6 27 -52 52 -100 43 -86 113 -190 179 -263 17
-20 11 -16 -13 8 -34 34 -46 41 -53 30 -6 -9 -7 -5 -3 12 5 20 4 22 -5 10 -10
-13 -11 -13 -6 2 3 12 1 15 -9 12 -12 -5 -12 -10 2 -30 8 -13 19 -24 23 -24 4
0 13 -13 19 -28 22 -53 140 -158 226 -200 94 -46 151 -66 165 -57 28 18 3 -22
-52 -81 -171 -182 -428 -276 -712 -261 -183 10 -360 67 -456 147 -32 27 -34
29 -15 36 95 37 295 199 295 240 0 8 3 14 8 14 13 0 59 93 80 162 33 107 43
180 47 351 l3 162 29 12 c35 15 83 16 118 3z m-732 -98 c21 -19 22 -40 0 -64
-23 -26 -59 -23 -78 6 -18 27 -9 57 22 75 19 10 27 7 56 -17z m1107 -477 c11
-13 10 -14 -4 -9 -9 3 -16 10 -16 15 0 13 6 11 20 -6z m159 -91 c14 -12 -19
-1 -35 12 -18 14 -18 14 6 3 14 -6 27 -13 29 -15z m38 -10 c-3 -3 -12 -4 -19
-1 -8 3 -5 6 6 6 11 1 17 -2 13 -5z m-1998 -118 c-2 -2 -13 8 -23 22 l-19 27
24 -22 c12 -12 21 -24 18 -27z"/>
<path d="M4570 5675 c0 -5 5 -17 10 -25 5 -8 10 -10 10 -5 0 6 -5 17 -10 25
-5 8 -10 11 -10 5z"/>
<path d="M4668 5499 c6 -7 12 -17 12 -22 0 -4 -6 -5 -12 -1 -7 4 -9 3 -5 -1 4
-5 14 -10 22 -11 11 -2 12 2 5 16 -6 11 -16 22 -23 26 -9 5 -9 4 1 -7z"/>
<path d="M6200 6713 c0 -5 5 -15 10 -23 8 -12 10 -11 10 8 0 12 -4 22 -10 22
-5 0 -10 -3 -10 -7z"/>
<path d="M4900 6679 c-65 -13 -147 -56 -175 -93 -34 -45 -34 -100 0 -122 35
-23 65 -21 111 9 41 27 145 57 202 57 18 0 46 7 62 15 24 12 30 22 30 49 0 73
-100 110 -230 85z"/>
<path d="M3640 6554 c-95 -25 -152 -111 -99 -148 18 -12 44 -14 139 -9 94 5
126 3 167 -11 47 -16 55 -16 81 -2 16 8 32 23 36 31 42 111 -138 188 -324 139z"/>
<path d="M6088 5673 c7 -3 16 -2 19 1 4 3 -2 6 -13 5 -11 0 -14 -3 -6 -6z"/>
<path d="M2098 4513 c12 -2 32 -2 45 0 12 2 2 4 -23 4 -25 0 -35 -2 -22 -4z"/>
<path d="M2333 4513 c9 -2 23 -2 30 0 6 3 -1 5 -18 5 -16 0 -22 -2 -12 -5z"/>
<path d="M3160 4385 c13 -14 26 -25 28 -25 3 0 -5 11 -18 25 -13 14 -26 25
-28 25 -3 0 5 -11 18 -25z"/>
<path d="M3462 4248 c5 -15 28 -23 28 -10 0 5 -7 13 -16 16 -10 4 -14 1 -12
-6z"/>
<path d="M3126 4227 c2 -7 -8 -18 -23 -25 -25 -10 -25 -11 -3 -6 14 4 31 12
38 19 11 10 11 13 -2 18 -9 4 -13 1 -10 -6z"/>
<path d="M1670 4091 c0 -4 12 -6 28 -4 19 3 23 2 13 -5 -18 -13 -6 -31 17 -25
10 2 24 -3 31 -11 21 -26 35 -18 17 9 -9 13 -16 27 -16 29 0 3 37 7 83 9 63 2
53 3 -45 5 -71 1 -128 -2 -128 -7z"/>
<path d="M1800 4049 c0 -5 5 -7 10 -4 6 3 10 8 10 11 0 2 -4 4 -10 4 -5 0 -10
-5 -10 -11z"/>
<path d="M1996 3292 c-3 -4 4 -9 15 -9 23 -2 25 3 4 10 -8 4 -16 3 -19 -1z"/>
<path d="M1945 3270 c-5 -9 -100 -27 -117 -22 -5 1 -8 -2 -8 -8 0 -5 12 -8 28
-5 15 2 43 7 64 10 20 3 39 12 42 20 6 17 0 20 -9 5z"/>
<path d="M1970 3260 c0 -5 7 -7 15 -4 8 4 15 8 15 10 0 2 -7 4 -15 4 -8 0 -15
-4 -15 -10z"/>
<path d="M1688 3223 c6 -2 18 -2 25 0 6 3 1 5 -13 5 -14 0 -19 -2 -12 -5z"/>
<path d="M1873 3223 c9 -2 23 -2 30 0 6 3 -1 5 -18 5 -16 0 -22 -2 -12 -5z"/>
<path d="M1803 3213 c9 -2 23 -2 30 0 6 3 -1 5 -18 5 -16 0 -22 -2 -12 -5z"/>
<path d="M1930 3199 c0 -5 5 -7 10 -4 6 3 10 8 10 11 0 2 -4 4 -10 4 -5 0 -10
-5 -10 -11z"/>
<path d="M1850 3176 c0 -2 7 -7 16 -10 8 -3 12 -2 9 4 -6 10 -25 14 -25 6z"/>
<path d="M8658 4833 c12 -2 30 -2 40 0 9 3 -1 5 -23 4 -22 0 -30 -2 -17 -4z"/>
<path d="M8725 4815 c23 -8 85 -10 85 -3 0 4 -21 8 -47 7 -27 0 -43 -2 -38 -4z"/>
<path d="M7400 4580 c-18 -12 -2 -12 25 0 13 6 15 9 5 9 -8 0 -22 -4 -30 -9z"/>
<path d="M7283 4554 c4 -4 2 -13 -4 -21 -15 -17 -1 -17 16 1 12 12 12 15 -2
21 -10 3 -14 3 -10 -1z"/>
<path d="M7229 4499 l-24 -20 28 17 c15 9 27 18 27 20 0 8 -8 4 -31 -17z"/>
<path d="M6851 4494 c0 -11 3 -14 6 -6 3 7 2 16 -1 19 -3 4 -6 -2 -5 -13z"/>
<path d="M8808 4503 c7 -3 16 -2 19 1 4 3 -2 6 -13 5 -11 0 -14 -3 -6 -6z"/>
<path d="M7731 4254 c0 -11 3 -14 6 -6 3 7 2 16 -1 19 -3 4 -6 -2 -5 -13z"/>
<path d="M8733 4173 c9 -2 23 -2 30 0 6 3 -1 5 -18 5 -16 0 -22 -2 -12 -5z"/>
<path d="M6555 4310 c-16 -7 -17 -9 -3 -9 9 -1 20 4 23 9 7 11 7 11 -20 0z"/>
<path d="M4316 3965 c-16 -12 -17 -15 -4 -15 9 0 18 7 22 15 7 18 6 18 -18 0z"/>
<path d="M4467 3530 c-9 -11 -13 -20 -8 -20 11 0 35 29 29 35 -2 2 -12 -4 -21
-15z"/>
<path d="M7895 4170 c-3 -5 1 -10 10 -10 9 0 13 5 10 10 -3 6 -8 10 -10 10 -2
0 -7 -4 -10 -10z"/>
<path d="M3080 3739 c0 -5 5 -7 10 -4 6 3 10 8 10 11 0 2 -4 4 -10 4 -5 0 -10
-5 -10 -11z"/>
<path d="M2803 3254 c-116 -58 -149 -203 -66 -295 48 -53 87 -72 148 -72 82
-1 149 42 180 116 39 95 -13 220 -108 256 -41 16 -117 13 -154 -5z"/>
<path d="M1960 2689 c0 -5 5 -7 10 -4 6 3 10 8 10 11 0 2 -4 4 -10 4 -5 0 -10
-5 -10 -11z"/>
<path d="M2060 1790 c-13 -8 -12 -10 3 -10 9 0 17 5 17 10 0 12 -1 12 -20 0z"/>
<path d="M4620 2523 c-14 -2 -90 -13 -168 -24 -79 -11 -153 -24 -165 -29 -12
-5 -56 -21 -97 -36 -222 -80 -567 -248 -775 -377 -27 -17 -52 -34 -55 -37 -3
-3 -23 -17 -45 -30 -49 -29 -212 -147 -240 -173 -20 -19 -20 -19 5 -12 14 4
26 11 28 16 2 4 9 6 17 3 19 -8 175 23 280 55 49 16 128 38 175 51 47 12 110
30 140 40 89 29 313 95 485 143 88 24 221 62 295 83 84 23 175 58 240 90 58
29 131 62 163 74 31 12 55 25 52 30 -3 4 3 6 12 4 10 -2 31 -1 48 4 l30 8 -50
19 c-28 10 -68 26 -90 35 -151 66 -200 77 -285 63z"/>
<path d="M5209 2308 c-35 -18 -66 -35 -69 -39 -3 -4 -21 -14 -40 -22 -37 -17
-111 -58 -170 -93 -19 -12 -60 -35 -90 -51 -156 -85 -401 -254 -398 -273 2 -9
26 -21 64 -30 43 -11 69 -24 92 -47 19 -20 37 -30 47 -27 10 4 15 0 15 -11 0
-14 6 -16 36 -10 46 8 106 40 96 50 -4 5 -2 5 5 1 12 -6 134 76 141 95 2 5 8
9 13 9 9 0 85 50 134 88 14 11 25 26 25 33 0 10 2 11 8 2 9 -14 88 38 85 55
-2 6 3 9 10 7 6 -3 39 13 72 35 33 22 52 40 43 40 -9 0 -20 -4 -23 -10 -7 -12
-25 -13 -25 -2 0 11 51 32 62 26 18 -12 65 16 64 38 -1 15 7 24 24 28 l25 7
-27 8 c-16 4 -28 11 -28 16 0 5 -7 9 -15 9 -9 0 -28 13 -43 28 -15 16 -36 31
-45 35 -10 4 -16 11 -12 16 13 23 -17 18 -76 -11z m181 -152 c0 -2 -7 -7 -16
-10 -8 -3 -12 -2 -9 4 6 10 25 14 25 6z"/>
</g>
</svg>
